<svg width="166" height="52" viewBox="0 0 166 52" fill="none" xmlns="http://www.w3.org/2000/svg">
<g clip-path="url(#clip0_4017_1968)">
<path fill-rule="evenodd" clip-rule="evenodd" d="M17.4161 41.8868C17.4161 41.8868 24.4864 41.8868 25.9724 41.8868C29.184 41.8868 30.7179 39.5176 30.7179 36.3134C30.7179 33.7006 29.7274 30.3607 24.9899 30.3607C23.7673 30.3607 17.4161 30.3607 17.4161 30.3607V41.8868ZM17.4161 20.2408C17.4161 20.2408 24.0925 20.2408 25.578 20.2408C27.5335 20.2408 29.8312 18.8512 29.8312 15.1803C29.8312 11.6769 28.2472 10.1199 24.9899 10.1199C23.7673 10.1199 17.4161 10.1199 17.4161 10.1199V20.2408ZM0 0C4.50597 0 20.1129 0 27.1109 0C37.3571 0 42.5337 4.23051 42.5337 13.5265C42.5337 23.2603 36.4997 24.3195 34.5767 24.9497C36.2703 25.5822 43.7802 27.8908 43.7802 37.9756C43.7802 47.2488 36.4507 52 29.6875 52C23.7434 52 4.56984 52 4.56984 52C4.56984 52 4.56984 12.9257 4.56984 9.31826C4.56984 1.28779 1.02244 0.415542 0 0Z" fill="#005B99"/>
<path fill-rule="evenodd" clip-rule="evenodd" d="M65.2358 30.3618H77.6605L70.962 12.1709L65.2358 30.3618ZM85.6294 52L81.4227 40.48H62.0444C62.0444 40.48 60.8234 44.2749 60.5158 45.2901C59.356 49.1229 62.5587 51.8698 62.7375 52C59.5821 52 45.6035 52 45.6035 52C45.6035 52 58.8046 10.1199 59.6266 7.5148C61.5139 1.53367 58.5673 0.262564 57.8854 0C62.0444 0 79.355 0 79.355 0L98.5046 52H85.6294Z" fill="#005B99"/>
<path fill-rule="evenodd" clip-rule="evenodd" d="M145.934 0H123.144C126.647 1.20212 126.642 4.95034 124.636 7.34791C124.345 7.69559 121.545 11.0666 117.604 15.8123L108.756 0H91.5328L109.191 25.9449C99.0116 38.2048 87.5605 52 87.5605 52C87.5605 52 106.61 52 109.821 52C109.317 51.5088 105.782 48.3408 109.119 44.3228C109.41 43.9729 113.167 39.4492 118.178 33.4158L128.617 52H145.841L126.45 23.4572C136 11.96 145.934 0 145.934 0Z" fill="#005B99"/>
<path fill-rule="evenodd" clip-rule="evenodd" d="M147.758 0H166V52H151.999C151.999 52 151.999 12.9257 151.999 9.31826C151.999 1.28779 148.772 0.415542 147.758 0Z" fill="#005B99"/>
</g>
<defs>
<clipPath id="clip0_4017_1968">
<rect width="166" height="52" fill="white"/>
</clipPath>
</defs>
</svg>
