<svg width="300" height="74" viewBox="0 0 300 74" fill="none" xmlns="http://www.w3.org/2000/svg">
<path d="M118.309 36.7547L118.313 36.7493C120.12 34.3178 121.127 31.3395 121.074 28.5791C121.014 25.6564 120.007 22.6739 118.313 20.395C116.676 18.0587 114.228 16.2886 111.413 15.4014C110.053 14.9853 108.599 14.7637 107.211 14.7637H88.1641V56.8944H95.493V42.3212H107.211C111.661 42.3212 115.81 40.2393 118.309 36.7547ZM95.493 35.4636V21.6806H107.153C108.81 21.6806 110.763 22.6617 112.01 24.1201C112.983 25.2183 113.559 26.7951 113.627 28.5584C113.684 29.9721 113.213 31.4061 112.262 32.7057C111.037 34.3561 108.985 35.4636 107.153 35.4636H95.493Z" fill="#373A36"/>
<path d="M193.97 56.8946V25.4717H187.409L172.75 44.8261V25.4717H165.305V56.8946H171.86L186.521 36.8556V56.8946H193.97Z" fill="#373A36"/>
<path d="M228.048 25.4717H199.855V31.9126H210.287V56.8946H217.616V31.9126H228.048V25.4717Z" fill="#373A36"/>
<path d="M247.076 24.5791C242.351 24.5791 237.889 26.5341 235.137 29.8094C232.647 32.85 231.328 36.7836 231.328 41.1823C231.328 45.6847 232.574 49.406 235.139 52.5583C237.932 55.8811 242.282 57.7873 247.076 57.7873C251.934 57.7873 256.174 55.93 259.015 52.557C261.688 49.2139 262.881 45.7036 262.881 41.1823C262.881 36.6488 261.616 32.9275 259.014 29.8077C256.269 26.484 251.919 24.5791 247.076 24.5791ZM253.184 48.0576C251.859 49.8795 249.631 50.9284 247.076 50.9284C244.521 50.9284 242.293 49.8795 240.964 48.0521C239.731 46.4261 239.129 44.177 239.129 41.1823C239.129 38.1889 239.749 35.8556 240.968 34.2489C242.265 32.4637 244.493 31.4367 247.076 31.4367C249.659 31.4367 251.887 32.4637 253.188 34.2544C254.754 36.3127 255.083 39.1591 255.083 41.1823C255.083 44.086 254.443 46.3987 253.184 48.0576Z" fill="#373A36"/>
<path d="M297.944 56.8946V25.4717H290.615V36.9508H276.843V25.4717H269.514V56.8946H276.843V44.3446H290.615V56.8946H297.944Z" fill="#373A36"/>
<path d="M156.603 56.8944V37.8298C156.603 34.3494 155.953 31.6622 154.617 29.6116C152.227 25.9517 147.977 24.3366 141.209 24.5818L140.932 24.5856L140.458 24.6142C136.037 24.7979 132.034 26.6919 129.473 29.8091C127.037 32.8501 125.748 36.7834 125.748 41.1821C125.748 45.6857 126.968 49.4083 129.477 52.561C132.203 55.8808 136.458 57.787 141.147 57.787C144.38 57.787 147.407 56.8919 149.898 55.1976L150.418 54.8441V56.8944H156.603ZM149.685 41.1821C149.68 44.095 149.026 46.4098 147.738 48.0641C146.385 49.8818 144.11 50.9282 141.499 50.9282C138.89 50.9282 136.615 49.8818 135.257 48.0573C133.994 46.4326 133.377 44.181 133.377 41.1821C133.377 38.1849 134.011 35.8499 135.262 34.242C136.59 32.4567 138.816 31.4352 141.378 31.4352C141.419 31.4352 141.461 31.4364 141.503 31.4364C143.946 31.4663 146.293 31.6744 148.171 33.8595C149.698 35.6363 149.69 38.9823 149.685 40.9812V41.1821Z" fill="#373A36"/>
<path d="M180.235 21.6559C183.177 21.6559 186.496 20.6862 189.947 18.071L185.934 14.0792C180.247 17.9699 175.979 15.121 174.601 13.9297L170.637 17.8735C172.612 19.7114 176.033 21.6559 180.235 21.6559Z" fill="#373A36"/>
<path d="M43.2935 2.64462L40.7077 0L38.2802 3.16824C34.3429 8.31384 32.4731 10.552 31.5983 11.5229L31.4573 11.6927C30.3784 13.071 29.3114 14.3563 28.2647 15.6171C24.6013 20.0301 21.1403 24.1988 18.2332 30.9081C18.2166 30.9486 17.7285 32.1807 17.275 34.121C11.6821 33.6416 5.89692 32.8122 4.47975 32.5417L0 31.687L1.74109 43.0638C3.04733 51.9358 5.41253 61.6612 16.9854 64.8101L17.275 64.8754C21.2525 65.5743 24.8215 65.2229 27.8473 64.3728C29.1819 63.9975 30.395 63.5177 31.5068 62.9953C31.564 66.1274 32.6323 70.0442 36.7119 73.188L40.7327 68.3823C37.585 65.9567 37.6405 62.6933 37.9788 60.8933C39.5907 60.7977 41.3708 60.5314 43.2143 60.0133C49.1684 58.3405 55.7115 54.109 58.8638 45.0222C65.5635 25.72 44.2051 3.57643 43.2935 2.64462ZM32.4934 53.9456C30.5461 53.1014 28.4502 51.6055 25.9135 49.2596C23.5597 46.6836 22.862 43.4623 22.8374 40.5725C22.9746 40.575 23.1232 40.5826 23.2574 40.5843C31.4006 42.3902 32.4701 50.1476 32.4934 53.9456ZM18.6765 58.8831C12.3024 57.097 9.60605 52.8297 8.02417 42.0827L7.58508 39.2156C10.1171 39.5539 13.333 39.9288 16.512 40.2026C16.4518 44.4388 17.4371 49.4015 21.2254 53.47L21.3804 53.6246C23.4729 55.5674 25.3804 57.0494 27.2185 58.1754C24.9549 58.9783 22.0803 59.4543 18.6765 58.8831ZM52.8496 43.1847C49.8378 51.868 43.0492 54.1086 38.8599 54.6398C38.9861 48.9575 36.9664 37.0622 24.3833 34.5364L23.7647 34.4719C23.7363 34.4715 23.7054 34.4702 23.6775 34.4698C23.9124 33.6332 24.1098 33.1125 24.1098 33.1125C26.6388 27.2719 29.673 23.6146 33.1895 19.3806C34.2527 18.0995 35.3362 16.7941 36.4312 15.3959C37.4724 14.2307 39.0369 12.3107 41.0968 9.66816C46.207 15.7852 57.1384 30.8285 52.8496 43.1847Z" fill="#45AC34"/>
</svg>
