<svg width="466" height="466" fill="none" xmlns="http://www.w3.org/2000/svg"><path d="M96.366 44.94 233 .544 369.634 44.94l84.444 116.227v143.666l-84.444 116.228L233 465.456 96.366 421.061 11.922 304.833V161.167L96.366 44.94Z" stroke="#4D4D4D" stroke-width="1.036"/><path d="m130.758 92.274 102.243-33.22 102.243 33.22 63.19 86.973v107.505l-63.19 86.974-102.243 33.221-102.243-33.221-63.19-86.974V179.247l63.19-86.973Z" stroke="#4D4D4D" stroke-width="1.036"/><path d="M167.582 142.96 233 121.705l65.418 21.255 40.431 55.648v68.784l-40.431 55.648L233 344.296l-65.418-21.256-40.43-55.648v-68.784l40.43-55.648Z" stroke="#4D4D4D" stroke-width="1.036"/></svg>