<svg width="837" height="980" fill="none" xmlns="http://www.w3.org/2000/svg"><path d="m467.903 127.981 161.232 85.526 80.656 163.721-30.726 179.378-130.369 126.519-180.217 25.339-161.232-85.525-80.657-163.722 30.727-179.378L287.685 153.32l180.218-25.339Z" stroke="#E9E9E9" stroke-opacity=".2" stroke-width="2"/><path d="M253.915 294.303 335 268.051l81.085 26.252 50.112 68.724v84.946l-50.112 68.724L335 542.949l-81.085-26.252-50.112-68.724v-84.946l50.112-68.724Zm-8.251 383.537 97.836-31.789 97.836 31.789 60.466 83.225v102.87l-60.466 83.225-97.836 31.789-97.836-31.789-60.466-83.225v-102.87l60.466-83.225Z" stroke="#E9E9E9" stroke-opacity=".2" stroke-width="2"/></svg>