<svg width="740" height="884" fill="none" xmlns="http://www.w3.org/2000/svg"><path d="m388.398 235.463-35.265 92.979-83.183 54.494-99.326-4.808-77.531-62.272-26.122-95.951 35.266-92.979 83.183-54.493 99.326 4.807 77.531 62.272 26.121 95.951Zm114.575 419.04-36.851 96.77-86.542 56.859-103.173-4.771-80.397-64.573-26.915-99.715 36.851-96.77 86.542-56.859 103.173 4.77 80.397 64.574 26.915 99.715Z" stroke="#E9E9E9" stroke-opacity=".2" stroke-width="2"/><path d="m651.354 405.996-47.086 123.542-110.476 72.629-131.661-6.027-102.56-82.375-34.287-127.261 47.086-123.542 110.476-72.628 131.661 6.026 102.56 82.375 34.287 127.261Z" stroke="#E9E9E9" stroke-opacity=".2" stroke-width="2"/></svg>