<svg width="362" height="362" fill="none" xmlns="http://www.w3.org/2000/svg"><path d="M353.97 107.781 355 354.882H7V107.781h174m172.97 0H181m172.97 0L181 11v96.781" stroke="#EE1B24" stroke-width="12.355"/><path d="M56.53 226.84v-67.119h12.848l28.573 47.367h-6.807l28.094-47.367h12.848l.096 67.119h-14.574l-.096-44.778h2.78L97.76 219.744h-6.904l-23.012-37.682h3.26v44.778H56.529Zm99.524-40.08h32.313v12.082h-32.313V186.76Zm1.151 27.615h36.532v12.465h-51.969v-67.119h50.722v12.465h-35.285v42.189Zm45.809 12.465v-67.119h47.367l-.096 12.657h-35.477l3.547-3.548.096 58.01h-15.437Zm37.972 0 29.916-67.119h15.341l30.012 67.119h-16.3l-24.547-59.257h6.137l-24.642 59.257h-15.917Zm14.958-14.383 4.123-11.794h34.518l4.219 11.794h-42.86ZM74.507 289.401v-11.89h33.175v11.89H74.507Zm8.82-40.272c5.05 0 9.685.863 13.904 2.589 4.219 1.662 7.894 4.059 11.027 7.191 3.132 3.133 5.561 6.808 7.287 11.027 1.726 4.219 2.589 8.853 2.589 13.903 0 5.05-.863 9.685-2.589 13.904-1.726 4.218-4.155 7.894-7.287 11.026-3.133 3.132-6.808 5.562-11.027 7.287-4.219 1.662-8.853 2.493-13.903 2.493-5.945 0-11.315-1.022-16.109-3.068-4.73-2.045-8.693-5.018-11.89-8.917l9.877-9.205c2.365 2.685 4.986 4.698 7.862 6.041 2.877 1.278 6.04 1.917 9.493 1.917 2.876 0 5.53-.511 7.958-1.534 2.493-1.086 4.603-2.557 6.328-4.41 1.79-1.918 3.133-4.187 4.028-6.808.958-2.621 1.438-5.53 1.438-8.726 0-3.196-.48-6.104-1.438-8.725-.895-2.621-2.238-4.858-4.028-6.712-1.725-1.918-3.835-3.388-6.328-4.411-2.429-1.086-5.082-1.63-7.958-1.63-3.452 0-6.616.671-9.493 2.014-2.876 1.278-5.497 3.26-7.862 5.945l-9.876-9.205c3.196-3.9 7.159-6.872 11.89-8.917 4.793-2.046 10.163-3.069 16.108-3.069Zm56.919 68.27v-58.01l3.548 3.548h-24.93V250.28h58.202v12.657h-24.93l3.452-3.548v58.01h-15.342Zm90.235 0-20.903-32.313 12.561-7.575 25.984 39.888h-17.642Zm-43.628 0V250.28h15.438v67.119h-15.438Zm10.931-27.04v-12.944h23.396v12.944h-23.396Zm25.793-4.794-14.287-1.726 21.766-33.559h16.396l-23.875 35.285Z" fill="#EE1B24"/></svg>