<svg width="24" height="24" fill="none" xmlns="http://www.w3.org/2000/svg"><path d="M21.298 8h-5.596C15.311 8 15 7.557 15 7c0-.557.31-1 .702-1h5.596c.391 0 .702.443.702 1 0 .557-.31 1-.702 1ZM6.316 8H2.684C2.303 8 2 7.557 2 7c0-.557.303-1 .684-1h3.632C6.697 6 7 6.443 7 7c0 .557-.313 1-.684 1Z" fill="#fff"/><path d="M10.14 10.83a3.95 3.95 0 1 0 0-7.9 3.95 3.95 0 0 0 0 7.9ZM21.316 18h-3.632c-.381 0-.684-.443-.684-1 0-.557.303-1 .684-1h3.632c.381 0 .684.443.684 1 0 .557-.303 1-.684 1ZM8.298 18H2.702C2.311 18 2 17.557 2 17c0-.557.31-1 .702-1h5.596c.391 0 .702.443.702 1 0 .557-.32 1-.702 1Z" fill="#fff"/><path d="M13.86 21.07a3.95 3.95 0 1 0 0-7.9 3.95 3.95 0 0 0 0 7.9Z" fill="#fff"/></svg>