<svg width="24" height="24" viewBox="0 0 24 24" fill="none" xmlns="http://www.w3.org/2000/svg">
<path d="M21.298 8H15.702C15.3109 8 15 7.55714 15 7C15 6.44286 15.3109 6 15.702 6H21.298C21.6891 6 22 6.44286 22 7C22 7.55714 21.6891 8 21.298 8Z" fill="white"/>
<path d="M6.31641 8H2.68359C2.30273 8 2 7.55714 2 7C2 6.44286 2.30273 6 2.68359 6H6.31641C6.69727 6 7 6.44286 7 7C7 7.55714 6.6875 8 6.31641 8Z" fill="white"/>
<path d="M10.14 10.83C12.3215 10.83 14.09 9.06153 14.09 6.88C14.09 4.69848 12.3215 2.93 10.14 2.93C7.95848 2.93 6.19 4.69848 6.19 6.88C6.19 9.06153 7.95848 10.83 10.14 10.83Z" fill="white"/>
<path d="M21.3164 18H17.6836C17.3027 18 17 17.5571 17 17C17 16.4429 17.3027 16 17.6836 16H21.3164C21.6973 16 22 16.4429 22 17C22 17.5571 21.6973 18 21.3164 18Z" fill="white"/>
<path d="M8.29799 18H2.70201C2.31089 18 2 17.5571 2 17C2 16.4429 2.31089 16 2.70201 16H8.29799C8.68911 16 9 16.4429 9 17C9 17.5571 8.67908 18 8.29799 18Z" fill="white"/>
<path d="M13.86 21.07C16.0415 21.07 17.81 19.3015 17.81 17.12C17.81 14.9385 16.0415 13.17 13.86 13.17C11.6784 13.17 9.90997 14.9385 9.90997 17.12C9.90997 19.3015 11.6784 21.07 13.86 21.07Z" fill="white"/>
</svg>
