<svg width="466" height="466" viewBox="0 0 466 466" fill="none" xmlns="http://www.w3.org/2000/svg">
<path d="M96.366 44.9395L233 0.544424L369.634 44.9395L454.078 161.167V304.833L369.634 421.061L233 465.456L96.3661 421.061L11.9216 304.833V161.167L96.366 44.9395Z" stroke="#4D4D4D" stroke-width="1.03556"/>
<path d="M130.758 92.2741L233.001 59.0532L335.244 92.2741L398.434 179.247V286.752L335.244 373.726L233.001 406.947L130.758 373.726L67.5677 286.752V179.247L130.758 92.2741Z" stroke="#4D4D4D" stroke-width="1.03556"/>
<path d="M167.582 142.96L233 121.705L298.418 142.96L338.849 198.608V267.392L298.418 323.04L233 344.296L167.582 323.04L127.152 267.392V198.608L167.582 142.96Z" stroke="#4D4D4D" stroke-width="1.03556"/>
</svg>
