<svg width="837" height="980" viewBox="0 0 837 980" fill="none" xmlns="http://www.w3.org/2000/svg">
<path d="M467.903 127.981L629.135 213.507L709.791 377.228L679.065 556.606L548.696 683.125L368.479 708.464L207.247 622.939L126.59 459.217L157.317 279.839L287.685 153.32L467.903 127.981Z" stroke="#E9E9E9" stroke-opacity="0.2" stroke-width="2"/>
<path d="M253.915 294.303L335 268.051L416.085 294.303L466.197 363.027V447.973L416.085 516.697L335 542.949L253.915 516.697L203.803 447.973V363.027L253.915 294.303Z" stroke="#E9E9E9" stroke-opacity="0.2" stroke-width="2"/>
<path d="M245.664 677.84L343.5 646.051L441.336 677.84L501.802 761.065V863.935L441.336 947.16L343.5 978.949L245.664 947.16L185.198 863.935V761.065L245.664 677.84Z" stroke="#E9E9E9" stroke-opacity="0.2" stroke-width="2"/>
</svg>
