<svg width="740" height="884" viewBox="0 0 740 884" fill="none" xmlns="http://www.w3.org/2000/svg">
<path d="M388.398 235.463L353.133 328.442L269.95 382.936L170.624 378.128L93.0925 315.856L66.9712 219.905L102.237 126.926L185.42 72.4325L284.746 77.24L362.277 139.512L388.398 235.463Z" stroke="#E9E9E9" stroke-opacity="0.2" stroke-width="2"/>
<path d="M502.973 654.503L466.122 751.273L379.58 808.132L276.407 803.361L196.01 738.788L169.095 639.073L205.946 542.303L292.488 485.444L395.661 490.214L476.058 554.788L502.973 654.503Z" stroke="#E9E9E9" stroke-opacity="0.2" stroke-width="2"/>
<path d="M651.354 405.996L604.268 529.538L493.792 602.167L362.131 596.14L259.571 513.765L225.284 386.504L272.37 262.962L382.846 190.334L514.507 196.36L617.067 278.735L651.354 405.996Z" stroke="#E9E9E9" stroke-opacity="0.2" stroke-width="2"/>
</svg>
