<svg width="362" height="362" viewBox="0 0 362 362" fill="none" xmlns="http://www.w3.org/2000/svg">
<path d="M353.97 107.781L355 354.882H7V107.781H181M353.97 107.781H181M353.97 107.781L181 11V107.781" stroke="#EE1B24" stroke-width="12.355"/>
<path d="M56.5294 226.84V159.721H69.3779L97.9514 207.088H91.1436L119.238 159.721H132.086L132.182 226.84H117.608L117.512 182.062H120.292L97.7596 219.744H90.856L67.8438 182.062H71.1038V226.84H56.5294Z" fill="#EE1B24"/>
<path d="M156.054 186.76H188.367V198.842H156.054V186.76ZM157.205 214.375H193.737V226.84H141.768V159.721H192.49V172.186H157.205V214.375Z" fill="#EE1B24"/>
<path d="M203.014 226.84V159.721H250.381L250.285 172.378H214.808L218.355 168.83L218.451 226.84H203.014Z" fill="#EE1B24"/>
<path d="M240.986 226.84L270.902 159.721H286.243L316.255 226.84H299.955L275.408 167.583H281.545L256.903 226.84H240.986ZM255.944 212.457L260.067 200.663H294.585L298.804 212.457H255.944Z" fill="#EE1B24"/>
<path d="M74.5065 289.401V277.511H107.682V289.401H74.5065ZM83.3278 249.129C88.3777 249.129 93.0121 249.992 97.231 251.718C101.45 253.38 105.125 255.777 108.258 258.909C111.39 262.042 113.819 265.717 115.545 269.936C117.271 274.155 118.134 278.789 118.134 283.839C118.134 288.889 117.271 293.524 115.545 297.743C113.819 301.961 111.39 305.637 108.258 308.769C105.125 311.901 101.45 314.331 97.231 316.056C93.0121 317.718 88.3777 318.549 83.3278 318.549C77.383 318.549 72.0135 317.527 67.2193 315.481C62.489 313.436 58.5258 310.463 55.3296 306.564L65.2057 297.359C67.5708 300.044 70.1917 302.057 73.0682 303.4C75.9447 304.678 79.1089 305.317 82.5607 305.317C85.4373 305.317 88.0901 304.806 90.5191 303.783C93.0121 302.697 95.1216 301.226 96.8475 299.373C98.6373 297.455 99.9797 295.186 100.875 292.565C101.833 289.944 102.313 287.035 102.313 283.839C102.313 280.643 101.833 277.735 100.875 275.114C99.9797 272.493 98.6373 270.256 96.8475 268.402C95.1216 266.484 93.0121 265.014 90.5191 263.991C88.0901 262.905 85.4373 262.361 82.5607 262.361C79.1089 262.361 75.9447 263.032 73.0682 264.375C70.1917 265.653 67.5708 267.635 65.2057 270.32L55.3296 261.115C58.5258 257.215 62.489 254.243 67.2193 252.198C72.0135 250.152 77.383 249.129 83.3278 249.129Z" fill="#EE1B24"/>
<path d="M140.246 317.399V259.389L143.794 262.937H118.864V250.28H177.066V262.937H152.136L155.588 259.389V317.399H140.246Z" fill="#EE1B24"/>
<path d="M230.481 317.399L209.578 285.086L222.139 277.511L248.123 317.399H230.481ZM186.853 317.399V250.28H202.291V317.399H186.853ZM197.784 290.359V277.415H221.18V290.359H197.784ZM223.577 285.565L209.29 283.839L231.056 250.28H247.452L223.577 285.565Z" fill="#EE1B24"/>
</svg>
