<svg width="100" height="100" viewBox="0 0 100 100" fill="none" xmlns="http://www.w3.org/2000/svg">
<path d="M95.7308 30.3077L96 94.9231H5V30.3077H50.5M95.7308 30.3077H50.5M95.7308 30.3077L50.5 5V30.3077" stroke="white" stroke-width="3.23077"/>
<path d="M17.9509 61.1221V43.5708H21.3107L28.7825 55.957H27.0023L34.3488 43.5708H37.7086L37.7336 61.1221H33.9225L33.8974 49.4129H34.6246L28.7324 59.2667H26.9271L20.9095 49.4129H21.762V61.1221H17.9509Z" fill="white"/>
<path d="M43.9759 50.6415H52.4255V53.8007H43.9759V50.6415ZM44.2767 57.8626H53.8296V61.1221H40.24V43.5708H53.5037V46.8304H44.2767V57.8626Z" fill="white"/>
<path d="M56.2556 61.1221V43.5708H68.6417L68.6167 46.8805H59.3396L60.2673 45.9528L60.2924 61.1221H56.2556Z" fill="white"/>
<path d="M66.185 61.1221L74.0078 43.5708H78.0195L85.8674 61.1221H81.605L75.1862 45.6268H76.7909L70.3471 61.1221H66.185ZM70.0964 57.3611L71.1745 54.2771H80.2009L81.3041 57.3611H70.0964Z" fill="white"/>
<path d="M22.6512 77.4819V74.3728H31.3265V77.4819H22.6512ZM24.9579 66.9511C26.2784 66.9511 27.4903 67.1768 28.5935 67.6281C29.6967 68.0627 30.6579 68.6895 31.4769 69.5086C32.296 70.3276 32.9312 71.2888 33.3825 72.392C33.8338 73.4952 34.0595 74.7071 34.0595 76.0276C34.0595 77.3481 33.8338 78.56 33.3825 79.6632C32.9312 80.7664 32.296 81.7276 31.4769 82.5466C30.6579 83.3657 29.6967 84.0009 28.5935 84.4522C27.4903 84.8868 26.2784 85.1041 24.9579 85.1041C23.4034 85.1041 21.9993 84.8367 20.7456 84.3018C19.5087 83.7669 18.4723 82.9896 17.6365 81.97L20.2191 79.5629C20.8376 80.265 21.5229 80.7915 22.2751 81.1425C23.0273 81.4768 23.8547 81.644 24.7573 81.644C25.5095 81.644 26.2032 81.5103 26.8384 81.2428C27.4903 80.9587 28.0419 80.5742 28.4932 80.0895C28.9613 79.588 29.3123 78.9946 29.5463 78.3093C29.797 77.6239 29.9224 76.8634 29.9224 76.0276C29.9224 75.1918 29.797 74.4313 29.5463 73.746C29.3123 73.0606 28.9613 72.4756 28.4932 71.9908C28.0419 71.4894 27.4903 71.1049 26.8384 70.8375C26.2032 70.5533 25.5095 70.4112 24.7573 70.4112C23.8547 70.4112 23.0273 70.5867 22.2751 70.9378C21.5229 71.2721 20.8376 71.7902 20.2191 72.4923L17.6365 70.0853C18.4723 69.0656 19.5087 68.2884 20.7456 67.7535C21.9993 67.2186 23.4034 66.9511 24.9579 66.9511Z" fill="white"/>
<path d="M39.8424 84.8032V69.634L40.7701 70.5617H34.2511V67.252H49.4705V70.5617H42.9515L43.8541 69.634V84.8032H39.8424Z" fill="white"/>
<path d="M63.438 84.8032L57.972 76.3536L61.2566 74.3728L68.0514 84.8032H63.438ZM52.0297 84.8032V67.252H56.0664V84.8032H52.0297ZM54.888 77.7326V74.3477H61.0059V77.7326H54.888ZM61.6327 76.4789L57.8968 76.0276L63.5884 67.252H67.8759L61.6327 76.4789Z" fill="white"/>
</svg>
