<svg width="166" height="52" fill="none" xmlns="http://www.w3.org/2000/svg"><g clip-path="url(#a)" fill-rule="evenodd" clip-rule="evenodd" fill="#005B99"><path d="M17.416 41.887h8.556c3.212 0 4.746-2.37 4.746-5.574 0-2.612-.99-5.952-5.728-5.952h-7.574v11.526Zm0-21.646h8.162c1.956 0 4.253-1.39 4.253-5.06 0-3.504-1.584-5.061-4.841-5.061h-7.574v10.12ZM0 0h27.11c10.247 0 15.424 4.23 15.424 13.527 0 9.733-6.034 10.793-7.957 11.423 1.693.632 9.203 2.94 9.203 13.026C43.78 47.249 36.45 52 29.687 52H4.57V9.318C4.57 1.288 1.022.416 0 0Zm65.236 30.362H77.66L70.963 12.17l-5.726 18.19ZM85.629 52l-4.206-11.52H62.044s-1.22 3.795-1.528 4.81c-1.16 3.833 2.043 6.58 2.221 6.71H45.603L59.627 7.515C61.514 1.534 58.567.263 57.885 0h21.47l19.15 52H85.629Z"/><path d="M145.934 0h-22.79c3.503 1.202 3.498 4.95 1.492 7.348-.291.348-3.091 3.719-7.032 8.464L108.756 0H91.533l17.658 25.945C99.011 38.205 87.561 52 87.561 52h22.26c-.504-.491-4.039-3.66-.702-7.677l9.059-10.907L128.617 52h17.224L126.45 23.457 145.934 0Zm1.824 0H166v52h-14.001V9.318c0-8.03-3.227-8.902-4.241-9.318Z"/></g><defs><clipPath id="a"><path fill="#fff" d="M0 0h166v52H0z"/></clipPath></defs></svg>