<svg width="300" height="74" fill="none" xmlns="http://www.w3.org/2000/svg"><path d="m118.309 36.755.004-.006c1.807-2.431 2.814-5.41 2.761-8.17-.06-2.923-1.067-5.905-2.761-8.184-1.637-2.336-4.085-4.106-6.9-4.994a14.566 14.566 0 0 0-4.202-.637H88.164v42.13h7.329V42.321h11.718c4.45 0 8.599-2.082 11.098-5.566Zm-22.816-1.291V21.68h11.66c1.657 0 3.61.98 4.857 2.44.973 1.097 1.549 2.674 1.617 4.437.057 1.414-.414 2.848-1.365 4.148-1.225 1.65-3.277 2.758-5.109 2.758h-11.66Zm98.477 21.431V25.472h-6.561L172.75 44.826V25.472h-7.445v31.423h6.555l14.661-20.04v20.04h7.449Zm34.078-31.423h-28.193v6.44h10.432v24.983h7.329V31.913h10.432v-6.441Zm19.028-.892c-4.725 0-9.187 1.954-11.939 5.23-2.49 3.04-3.809 6.974-3.809 11.372 0 4.503 1.246 8.224 3.811 11.376 2.793 3.323 7.143 5.23 11.937 5.23 4.858 0 9.098-1.858 11.939-5.231 2.673-3.343 3.866-6.853 3.866-11.375 0-4.533-1.265-8.255-3.867-11.374-2.745-3.324-7.095-5.229-11.938-5.229Zm6.108 23.478c-1.325 1.822-3.553 2.87-6.108 2.87-2.555 0-4.783-1.048-6.112-2.876-1.233-1.626-1.835-3.875-1.835-6.87 0-2.993.62-5.326 1.839-6.933 1.297-1.785 3.525-2.812 6.108-2.812 2.583 0 4.811 1.027 6.112 2.817 1.566 2.059 1.895 4.905 1.895 6.928 0 2.904-.64 5.217-1.899 6.876Zm44.76 8.837V25.472h-7.329V36.95h-13.772V25.47h-7.329v31.424h7.329v-12.55h13.772v12.55h7.329Zm-141.341-.001V37.83c0-3.48-.65-6.168-1.986-8.218-2.39-3.66-6.64-5.275-13.408-5.03l-.277.004-.474.028c-4.421.184-8.424 2.078-10.985 5.195-2.436 3.041-3.725 6.974-3.725 11.373 0 4.504 1.22 8.226 3.729 11.379 2.726 3.32 6.981 5.226 11.67 5.226 3.233 0 6.26-.895 8.751-2.59l.52-.353v2.05h6.185Zm-6.918-15.712c-.005 2.913-.659 5.228-1.947 6.882-1.353 1.818-3.628 2.864-6.239 2.864-2.609 0-4.884-1.046-6.242-2.87-1.263-1.625-1.88-3.877-1.88-6.876 0-2.997.634-5.332 1.885-6.94 1.328-1.785 3.554-2.807 6.116-2.807l.125.001c2.443.03 4.79.238 6.668 2.423 1.527 1.777 1.519 5.123 1.514 7.122v.201Zm30.55-19.526c2.942 0 6.261-.97 9.712-3.585l-4.013-3.992c-5.687 3.89-9.955 1.042-11.333-.15l-3.964 3.944c1.975 1.838 5.396 3.783 9.598 3.783Z" fill="#373A36"/><path d="M43.294 2.645 40.708 0 38.28 3.168c-3.937 5.146-5.807 7.384-6.682 8.355l-.14.17a173.457 173.457 0 0 1-3.193 3.924C24.6 20.03 21.14 24.2 18.233 30.908c-.016.04-.505 1.273-.958 3.213-5.593-.48-11.378-1.309-12.795-1.58L0 31.688l1.741 11.377C3.047 51.936 5.413 61.66 16.985 64.81l.29.065c3.978.7 7.547.348 10.572-.502a23.597 23.597 0 0 0 3.66-1.378c.057 3.132 1.125 7.05 5.205 10.193l4.02-4.806c-3.147-2.425-3.091-5.689-2.753-7.489a24.864 24.864 0 0 0 5.235-.88c5.954-1.672 12.498-5.904 15.65-14.99 6.7-19.303-14.659-41.447-15.57-42.378Zm-10.8 51.3c-1.948-.844-4.044-2.34-6.58-4.685-2.354-2.576-3.052-5.798-3.077-8.688.138.003.286.01.42.012 8.144 1.806 9.213 9.564 9.236 13.362Zm-13.817 4.938c-6.375-1.786-9.07-6.053-10.653-16.8l-.439-2.867c2.532.338 5.748.713 8.927.987-.06 4.236.925 9.198 4.713 13.267l.155.155c2.093 1.942 4 3.424 5.838 4.55-2.263.803-5.138 1.28-8.541.708ZM52.85 43.185c-3.012 8.683-9.8 10.924-13.99 11.455.126-5.682-1.894-17.578-14.477-20.104l-.618-.064-.088-.002c.235-.837.433-1.358.433-1.358 2.529-5.84 5.563-9.497 9.08-13.731 1.063-1.282 2.146-2.587 3.241-3.985 1.041-1.165 2.606-3.085 4.666-5.728 5.11 6.117 16.041 21.16 11.753 33.517Z" fill="#45AC34"/></svg>